<mxfile host="app.diagrams.net" modified="2024-04-02T21:13:15.809Z" agent="Mozilla/5.0 (Windows NT 10.0; Win64; x64) AppleWebKit/537.36 (KHTML, like Gecko) Chrome/123.0.0.0 Safari/537.36" version="24.1.0" etag="v5DnjwlxtdziGlAOU3n2" type="github">
  <diagram name="Page-1" id="UWohAUOicxK_4Z5D9yxa">
    <mxGraphModel>
      <root>
        <mxCell id="0" />
        <mxCell id="1" parent="0" />
      </root>
    </mxGraphModel>
  </diagram>
</mxfile>
